<svg width="50" height="50" viewBox="0 0 50 50" fill="none" xmlns="http://www.w3.org/2000/svg">
<path d="M25 40C19.7917 40 15.1875 37.3333 12.5 33.3333C12.5625 29.1666 20.8333 26.875 25 26.875C29.1667 26.875 37.4375 29.1666 37.5 33.3333C36.1227 35.3842 34.2622 37.0649 32.0824 38.2274C29.9026 39.39 27.4704 39.9987 25 40ZM25 10.4166C26.6576 10.4166 28.2473 11.0751 29.4194 12.2472C30.5915 13.4193 31.25 15.009 31.25 16.6666C31.25 18.3242 30.5915 19.9139 29.4194 21.0861C28.2473 22.2582 26.6576 22.9166 25 22.9166C23.3424 22.9166 21.7527 22.2582 20.5806 21.0861C19.4085 19.9139 18.75 18.3242 18.75 16.6666C18.75 15.009 19.4085 13.4193 20.5806 12.2472C21.7527 11.0751 23.3424 10.4166 25 10.4166ZM25 4.16663C22.2641 4.16663 19.555 4.7055 17.0274 5.75247C14.4998 6.79944 12.2032 8.33402 10.2686 10.2686C6.36159 14.1756 4.16666 19.4746 4.16666 25C4.16666 30.5253 6.36159 35.8244 10.2686 39.7314C12.2032 41.6659 14.4998 43.2005 17.0274 44.2475C19.555 45.2944 22.2641 45.8333 25 45.8333C30.5253 45.8333 35.8244 43.6384 39.7314 39.7314C43.6384 35.8244 45.8333 30.5253 45.8333 25C45.8333 13.4791 36.4583 4.16663 25 4.16663Z" fill="#D9DFFB"/>
</svg>
