<svg width="34" height="34" viewBox="0 0 34 34" fill="none" xmlns="http://www.w3.org/2000/svg">
<path d="M10.625 17C10.625 17.4203 10.5004 17.8311 10.2669 18.1806C10.0334 18.53 9.7015 18.8024 9.3132 18.9632C8.92491 19.1241 8.49764 19.1662 8.08543 19.0842C7.67322 19.0022 7.29459 18.7998 6.9974 18.5026C6.70021 18.2054 6.49783 17.8268 6.41583 17.4146C6.33384 17.0024 6.37592 16.5751 6.53676 16.1868C6.69759 15.7985 6.96996 15.4666 7.31941 15.2331C7.66887 14.9996 8.07972 14.875 8.5 14.875C9.06359 14.875 9.60409 15.0989 10.0026 15.4974C10.4011 15.8959 10.625 16.4364 10.625 17ZM25.5 14.875C25.0797 14.875 24.6689 14.9996 24.3194 15.2331C23.97 15.4666 23.6976 15.7985 23.5368 16.1868C23.3759 16.5751 23.3338 17.0024 23.4158 17.4146C23.4978 17.8268 23.7002 18.2054 23.9974 18.5026C24.2946 18.7998 24.6732 19.0022 25.0854 19.0842C25.4976 19.1662 25.9249 19.1241 26.3132 18.9632C26.7015 18.8024 27.0334 18.53 27.2669 18.1806C27.5004 17.8311 27.625 17.4203 27.625 17C27.625 16.4364 27.4011 15.8959 27.0026 15.4974C26.6041 15.0989 26.0636 14.875 25.5 14.875ZM17 14.875C16.5797 14.875 16.1689 14.9996 15.8194 15.2331C15.47 15.4666 15.1976 15.7985 15.0368 16.1868C14.8759 16.5751 14.8338 17.0024 14.9158 17.4146C14.9978 17.8268 15.2002 18.2054 15.4974 18.5026C15.7946 18.7998 16.1732 19.0022 16.5854 19.0842C16.9976 19.1662 17.4249 19.1241 17.8132 18.9632C18.2015 18.8024 18.5334 18.53 18.7669 18.1806C19.0004 17.8311 19.125 17.4203 19.125 17C19.125 16.4364 18.9011 15.8959 18.5026 15.4974C18.1041 15.0989 17.5636 14.875 17 14.875Z" fill="black"/>
</svg>
