<svg width="50" height="50" viewBox="0 0 50 50" fill="none" xmlns="http://www.w3.org/2000/svg">
<path d="M50 30.4167C50 31.6667 47.5 32.5 44.5833 32.9167C42.7083 29.375 38.9583 26.6667 34.5833 24.7917C35 24.1667 35.4167 23.75 35.8333 23.125H37.5C43.9583 22.9167 50 26.875 50 30.4167ZM14.1667 22.9167H12.5C6.04167 22.9167 0 26.875 0 30.4167C0 31.6667 2.5 32.5 5.41667 32.9167C7.29167 29.375 11.0417 26.6667 15.4167 24.7917L14.1667 22.9167ZM25 25C29.5833 25 33.3333 21.25 33.3333 16.6667C33.3333 12.0833 29.5833 8.33333 25 8.33333C20.4167 8.33333 16.6667 12.0833 16.6667 16.6667C16.6667 21.25 20.4167 25 25 25ZM25 27.0833C16.4583 27.0833 8.33333 32.5 8.33333 37.5C8.33333 41.6667 25 41.6667 25 41.6667C25 41.6667 41.6667 41.6667 41.6667 37.5C41.6667 32.5 33.5417 27.0833 25 27.0833ZM36.875 20.8333H37.5C41.0417 20.8333 43.75 18.125 43.75 14.5833C43.75 11.0417 41.0417 8.33333 37.5 8.33333C36.4583 8.33333 35.625 8.54166 34.7917 8.95833C36.4583 11.0417 37.5 13.75 37.5 16.6667C37.5 18.125 37.2917 19.5833 36.875 20.8333ZM12.5 20.8333H13.125C12.7083 19.5833 12.5 18.125 12.5 16.6667C12.5 13.75 13.5417 11.0417 15.2083 8.95833C14.375 8.54166 13.5417 8.33333 12.5 8.33333C8.95833 8.33333 6.25 11.0417 6.25 14.5833C6.25 18.125 8.95833 20.8333 12.5 20.8333Z" fill="#010322"/>
</svg>
